<?xml version="1.0" encoding="UTF-8" standalone="no"?>
<svg
    xmlns="http://www.w3.org/2000/svg"
    viewBox="0 0 359.095 325.808"
    version="1.1"
>
<path style="clip-rule:evenodd;fill-rule:evenodd;fill:#8B5E3C" d="m191.51 15.181c4.184 2.568-0.223 4.212 0 8.275-2.13-0.889-1.09-7.2 0-8.275z"/>
<path style="clip-rule:evenodd;fill-rule:evenodd;fill:#8B5E3C" d="m119.1 24.491h3.103v5.172c-2.04-0.715-2.75-2.759-3.1-5.172z"/>
<path style="clip-rule:evenodd;fill-rule:evenodd;fill:#8B5E3C" d="m91.169 26.561c1.07 3.758 4.938 4.717 4.137 10.345-2.026-2.801-4.31-5.344-4.137-10.345z"/>
<path style="clip-rule:evenodd;fill-rule:evenodd;fill:#8B5E3C" d="m223.58 30.698c0.831 0.547 1.679 1.079 3.104 1.035 0.66 6.979-3.666 16.693-6.209 23.792-1.75-6.946 5.5-13.8 3.11-24.827z"/>
<path style="clip-rule:evenodd;fill-rule:evenodd;fill:#8B5E3C" d="m79.79 40.008c8.056 16.081 12.11 36.167 19.656 52.758 1.855 0.131 2.181-1.267 4.138-1.035-1.862 3.439-2.451 5.851-1.035 10.345-1.398-1.321-2.067-3.146-3.103 0-7.737-19.845-14.237-40.932-22.75-60.003 2.726 0.265 3.395 2.131 3.103-2.069z"/>
<path style="clip-rule:evenodd;fill-rule:evenodd;fill:#8B5E3C" d="m118.06 48.283c3.125 5.496 3.129 14.113 4.138 21.724-4.4-5.326-2.79-12.205-4.14-21.724z"/>
<path style="clip-rule:evenodd;fill-rule:evenodd;fill:#8B5E3C" d="m190.48 49.318c2.289 3.034-1.359 8.949 0 14.482-3.2-4.677-1.04-9.198 0-14.482z"/>
<path style="clip-rule:evenodd;fill-rule:evenodd;fill:#8B5E3C" d="m166.69 51.387c1.375 0.779 2.594 10.111-1.035 9.31-0.56-4.001 1.84-5.05 1.03-9.31z"/>
<path style="clip-rule:evenodd;fill-rule:evenodd;fill:#8B5E3C" d="m126.34 54.49c1.654 2.83 2.13 6.836 2.069 11.379-3.08-1.406-1.82-7.148-2.07-11.379z"/>
<path style="clip-rule:evenodd;fill-rule:evenodd;fill:#8B5E3C" d="m235.99 55.525c2.136 0.889 1.093 7.201 0 8.275-2.9-1.653 1.46-4.655 0-8.275z"/>
<path style="clip-rule:evenodd;fill-rule:evenodd;fill:#8B5E3C" d="m222.54 64.835c4.155 0.869-2.309 11.547 2.069 13.449-6.434 0.463-7.304 6.488-8.274 12.413-1.181-5.339 1.15-16.076 3.101-21.724 3.132 1.565-0.855 4.541 0 7.241 3.63-1.201 2.26-7.393 3.1-11.379z"/>
<path style="clip-rule:evenodd;fill-rule:evenodd;fill:#8B5E3C" d="m128.41 70.007c3.117 4.16 3.672 10.233 2.069 16.552-2.02-4.193-2.2-10.214-2.07-16.552z"/>
<path style="clip-rule:evenodd;fill-rule:evenodd;fill:#8B5E3C" d="m161.51 88.627c1.845 4.107 1.236 13.526 1.035 16.552-1.85-5.196-1.59-11.412-1.03-16.553z"/>
<path style="clip-rule:evenodd;fill-rule:evenodd;fill:#8B5E3C" d="m279.44 88.627c2.752 3.155-2.505 7.105-3.102 10.345-3.38-3.782 1.55-8.058 3.1-10.345z"/>
<path style="clip-rule:evenodd;fill-rule:evenodd;fill:#8B5E3C" d="m335.3 101.04c-2.931 6.38-8.589 10.029-14.483 13.449 4.66-4.65 6.2-12.42 14.48-13.45z"/>
<path style="clip-rule:evenodd;fill-rule:evenodd;fill:#8B5E3C" d="m101.51 111.39c2.079 2.06 3.539 4.736 3.104 9.31-3.09-1.04-2.03-6.24-3.1-9.31z"/>
<path style="clip-rule:evenodd;fill-rule:evenodd;fill:#8B5E3C" d="m345.65 114.49c3.363 2.229-3.479 5.006-6.205 7.241-3.562 2.917-8.41 6.447-10.345 9.31 0-6.9 11.9-10.84 16.55-16.55z"/>
<path style="clip-rule:evenodd;fill-rule:evenodd;fill:#8B5E3C" d="m199.79 123.8c1.344 11.517-2.355 21.546-3.102 35.171-2.57-13.4 1.16-24.06 3.1-35.17z"/>
<path style="clip-rule:evenodd;fill-rule:evenodd;fill:#8B5E3C" d="m208.06 123.8c4.711 0.28 0.795 6.917 0 8.275-1.6 9.4-0.28-4.58 0-8.28z"/>
<path style="clip-rule:evenodd;fill-rule:evenodd;fill:#8B5E3C" d="m153.24 127.94c2.958 0.144 1.892 4.315 2.069 7.24-1.6-1.5-2.18-4.04-2.07-7.24z"/>
<path style="clip-rule:evenodd;fill-rule:evenodd;fill:#8B5E3C" d="m278.41 130h4.136c-1.75 4.111-3.153 8.568-8.274 9.311 0.61-3.85 3.88-5.07 4.13-9.31z"/>
<path style="clip-rule:evenodd;fill-rule:evenodd;fill:#8B5E3C" d="m166.69 146.56c5.04 1.826-0.941 8.985 1.033 14.482-1.832 1.09-0.352-9.952-3.103-11.378 2.2 0.48 1.97-1.48 2.07-3.1z"/>
<path style="clip-rule:evenodd;fill-rule:evenodd;fill:#8B5E3C" d="m289.79 147.59c3.567 2.294 8.336 3.388 9.311 8.275-2.98-2.88-8.64-3.08-9.31-8.27z"/>
<path style="clip-rule:evenodd;fill-rule:evenodd;fill:#8B5E3C" d="m287.72 151.73c-0.017 3.087-2.691 3.517-3.104 6.207-3.099-0.681 0.99-2.211 0-4.138-0.672-1.053-2.378-1.07-2.07-3.104 3.24-1.15 2.73-0.49 5.17 1.03z"/>
<path style="clip-rule:evenodd;fill-rule:evenodd;fill:#8B5E3C" d="m178.06 196.21c1.497 0.248 2.405 8.515-1.035 7.24-0.5-3.26 1.87-3.65 1.04-7.24z"/>
<path style="clip-rule:evenodd;fill-rule:evenodd;fill:#8B5E3C" d="m193.58 201.38c3.167 2.57-1.238 6.277 0 10.345-2.03-1.43-1.26-8.77 0-10.34z"/>
<path style="clip-rule:evenodd;fill-rule:evenodd;fill:#8B5E3C" d="m66.343 211.73c1.773 1.332 4.067 2.141 4.137 5.174-2.909-0.19-4.407-1.8-4.137-5.17z"/>
<path style="clip-rule:evenodd;fill-rule:evenodd;fill:#8B5E3C" d="m166.69 211.73c3.932-0.828 1.315 4.893 2.068 7.243-3.59-0.61-2.56-5.11-2.07-7.24z"/>
<path style="clip-rule:evenodd;fill-rule:evenodd;fill:#8B5E3C" d="m162.55 218.97c2.177 12.579 0.764 24.683-1.035 37.239 2.72 2.688 0.814-1.673 4.139-1.034-0.749 4.425-1.975 8.371-3.104 12.414-3.7-15.71-1.63-36.5-0.01-48.62z"/>
<path style="clip-rule:evenodd;fill-rule:evenodd;fill:#8B5E3C" d="m192.55 240.69c2.722 3.801-2.122 8.878-2.066 13.446-3.17-4.25 1.57-9.43 2.07-13.45z"/>
<path style="clip-rule:evenodd;fill-rule:evenodd;fill:#8B5E3C" d="m206 240.69c4.733 2.4-1.913 10.188-3.104 13.446-2.63-4.04 3.08-8.6 3.1-13.45z"/>
<path style="clip-rule:evenodd;fill-rule:evenodd;fill:#8B5E3C" d="m116 248.97c9.24 4.057 11.551 19.913 22.759 18.623 2.46 5.127 4.253 10.917 8.275 14.483-4.128 1.682-6.16-7.612-9.31-10.348-2.847-0.6-4.321-2.575-7.241-3.104-2.92-8.46-12.5-10.26-14.49-19.65z"/>
<path style="clip-rule:evenodd;fill-rule:evenodd;fill:#8B5E3C" d="m172.89 254.14c1.203-0.168 1.841 0.229 2.069 1.035-4.26 7.81-3.228 20.909-5.172 31.033v-14.483c-2.42-7.47 1.61-11.33 3.1-17.59z"/>
<path style="clip-rule:evenodd;fill-rule:evenodd;fill:#8B5E3C" d="m132.55 258.28c3.549 0.171 5.507 5.355 4.138 7.241-2.64-1.08-6.42-4.44-4.14-7.24z"/>
<path style="clip-rule:evenodd;fill-rule:evenodd;fill:#8B5E3C" d="m194.62 258.28c1.676 5.149-1.783 14.061-6.205 16.551 2.4-5.17 4.24-10.92 6.2-16.55z"/>
<path style="clip-rule:evenodd;fill-rule:evenodd;fill:#8B5E3C" d="m258.75 265.52c2.493-0.424 2.251 1.891 5.174 1.034-2.355 2.818-2.956 7.39-3.104 12.414-3.035-2.699-0.559-4.479-1.035-9.312-2.922-0.853-2.677 1.459-5.17 1.035-1.35-4.45 4.93-1.27 4.14-5.16z"/>
<path style="clip-rule:evenodd;fill-rule:evenodd;fill:#8B5E3C" d="m183.24 270.69c2.567 0.605 0.905 11.822-3.104 12.414 0.31-4.85 3.12-7.21 3.1-12.41z"/>
<path style="clip-rule:evenodd;fill-rule:evenodd;fill:#8B5E3C" d="m268.06 271.73c0.737 4.774 2.482 13.083-2.069 15.519 2.15-4.91 0.95-8.52 2.07-15.52z"/>
<path style="clip-rule:evenodd;fill-rule:evenodd;fill:#8B5E3C" d="m153.24 272.76c2.282 1.511 0.821 6.764 3.104 8.277-2.55 2.81-3.16-5.06-3.1-8.28z"/>
<path style="clip-rule:evenodd;fill-rule:evenodd;fill:#8B5E3C" d="m157.38 282.07c2.165 0.938 3.154 3.049 3.104 6.203-2.83-0.4-4.82-4.36-3.1-6.2z"/>
<path style="clip-rule:evenodd;fill-rule:evenodd;fill:#8B5E3C" d="m148.06 286.21c3.532-2.452 5.771 5.229 8.276 7.241 2.025-1.987 5.008-6.654 6.206-1.035 2.286-0.127 0.44-4.387 1.035-6.206 1.181 0.581 2.793 9.591 4.138 13.449-2.653-0.104-1.662-3.855-3.103-5.174-6.54 5.93-12.82-2.72-16.56-8.28z"/>
<path style="clip-rule:evenodd;fill-rule:evenodd;fill:#8B5E3C" d="m93.239 291.38c1.203-0.168 1.84 0.231 2.068 1.035 1.396 13.436 10.429 19.226 15.517 28.967 1.468-0.091 2.93-0.17 3.104 1.035 16.147-1.786 32.699-3.165 48.619-5.174-5.922 8.842-18.828 4.199-28.964 5.174-7.287 0.699-14.475 4.447-21.724 3.102-7.15-10.43-19.24-15.93-18.621-34.14z"/>
<path style="clip-rule:evenodd;fill-rule:evenodd;fill:#8B5E3C" d="m249.44 292.42c0.829 3.936-4.893 1.315-7.243 2.069 0.15-2.96 4.32-1.9 7.24-2.07z"/>
<path style="clip-rule:evenodd;fill-rule:evenodd;fill:#8B5E3C" d="m249.44 301.73c-1.441 1.58-5.354 2.937-7.243 1.035 0.55-3.54 4.99-1.58 7.24-1.03z"/>
<path style="clip-rule:evenodd;fill-rule:evenodd;fill:#8B5E3C" d="m222.54 302.76c2.416-0.003 4.827 0 7.243 0 0.828 3.93-4.893 1.315-7.243 2.066v-2.07z"/>
<path style="clip-rule:evenodd;fill-rule:evenodd;fill:#8B5E3C" d="m119.1 306.9c-1.956-0.459-6.235 1.406-5.172-2.069 1.48-1.58 5.39-1.01 5.17 2.07z"/>
<path style="clip-rule:evenodd;fill-rule:evenodd;fill:#8B5E3C" d="m178.06 317.24c-4.283-0.198-3.5-5.465-7.239-6.208-3.522-0.072-3.854 3.043-5.172 5.173-5.15-12.85 16.8-7.6 12.41 1.04z"/>
<path style="clip-rule:evenodd;fill-rule:evenodd;fill:#8B5E3C" d="m221.51 310h7.243c0.828 3.936-4.894 1.315-7.243 2.069v-2.07z"/>
<path style="clip-rule:evenodd;fill-rule:evenodd;fill:#8B5E3C" d="m200.82 313.1c2.587-1.894 3.979 0.082 8.277-1.035-1.35 2.86-5.59 2.08-8.28 1.04z"/>
<path style="clip-rule:evenodd;fill-rule:evenodd;fill:#8B5E3C" d="m214.27 74.145c1.482-1.274 1.959-3.557 2.069-6.206 0.74 2.791 0.839 5.802 0 8.275-0.35 1.025-2.678 0.332-3.104 1.035-3.391 5.565-1.703 17.478-3.102 26.896-1.065 7.157-4.877 13.522-5.174 19.655 0.132 2.559-1.266 1.758-1.034 0 2.999-13.209 4.678-27.734 6.208-42.413-0.902-1.514-1.552-3.279-4.139-3.103-7.001 1.983-4.274 11.057-5.174 17.585-1.437 10.458-5.174 22.393-6.206 32.069 0.911 3.323-3.409 1.417-3.102 4.137 1.365 8.878-2.955 18.081-4.139 24.827-1.651 9.399-0.639 20-2.069 29.998-0.236 1.659-1.847 3.379-2.069 5.174-0.188 1.514 1.188 3.473 1.034 5.174-1.232 13.421-4.496 28.643-5.173 41.378-0.754 14.194 0.682 28.279-1.035 41.379-5.42-38.187 6.847-84.59 7.243-123.1-3.996 4.97-2.307 15.622-5.174 21.726-4.326-6.962 0.003-17.98 1.035-25.863-2.912-2.791-4.244 1.834-8.275 1.035-0.988-4.707 4.351-6.513 7.24-4.138 2.523-3.403 4.726-0.732 4.139-7.242-1.211 0.167-0.872 1.886-1.034 3.103-1.318-24.44 6.043-54.62 8.277-75.516-4.882-4.182-9.838-0.509-14.486 1.035 1.079-2.931 1.079-4.311 0-7.242-2.686 2.423-0.362 8.582 1.035 10.345-4.329 10.989 0.407 27.74-4.136 36.206v11.38 5.172c-0.804 1.888-1.112-0.619-1.035-2.068-0.651-17.548 1.792-32.001 1.035-49.655-0.33-3.428-3.202 4.034-4.138 0-0.725-5.12 4.185-0.494 5.172-5.173v-8.275c6.657-10.831 1.25-35.76 2.067-50.688 2.064 1.431 3.723 5.807 4.139 8.275 1.183 7.009-0.611 16.519-1.035 24.827-0.385 7.594-1.106 15.778 0 22.759 6.439-1.997 11.718-2.244 15.519 2.068 1.624-5.961 1.588-13.585 2.066-20.689-0.363-1.621-1.819 0.907-2.066-1.033 1.249-11.879 2.776-27.746 2.066-38.276 3.79 0.005 1.52 6.068 6.209 5.172-0.799-13.447-20.387-12.671-28.965-6.207-3.276 10.862 1.645 18.423-3.104 26.896-1.778-5.937 0.67-16.556 1.035-23.792-4.395 1.811-5.602 6.811-12.413 6.206 0.096 5.422 1.721 9.314 1.033 15.519-2.899-5.032 0.873-16.734-8.275-15.519-0.442 4.235 2.186 5.401 4.137 7.242-0.151 15.828 6.763 27.203 4.138 42.413-0.345 5.519 9.474 5.222 6.207 10.345-2.726 2.742-2.187-3.064-5.172-3.104-2.134 3.728 1.763 13.486-4.138 13.449 1.832 13.56 1.135 23.678 2.07 37.241 2.243 0.173 0.468-3.67 1.033-5.174 2.838 6.281 3.349 15.666 2.069 23.793-0.226 1.43-1.998 3.743-2.069 5.172-0.691 14.044 3.522 28.702 3.104 40.342 3.288-6.99 0.229-14.117 1.035-23.791 2.685-1.087 2.986 6.949 4.137 1.032-0.418 4.679 0.156 17.646 0 27.933-1.732 2.978-0.823-5.286-1.035-7.243-6.392 2.884-0.673 6.093-2.068 14.483 1.271-0.451 2.125-1.323 2.068-3.102 2.828 3.231-3.756 5.851-2.068 11.377-1.536-0.878-2.225-2.604-2.07-5.171-4.159 12.048 0.713-7.054-5.172-3.104-0.558-3.66 1.673-4.532 3.103-6.206-3.775-6.935-6.323-28.051-1.035-34.138-3.509-30.282-3.606-63.978-7.24-94.135-4.264 16.942 2.248 42.109 0 59.998-1.826-16.795-1.251-35.99-4.138-51.723-1.088-2.706-4.204-3.382-8.277-3.103 0.975-4.042 5.219-0.879 8.277-1.035 2.123-14.696-3.034-30.309-2.069-44.481 1.212 0.167 0.872 1.885 1.035 3.103 2.284-0.129 0.439-4.388 1.035-6.207-8.023-2.53 0.779-16.034-7.242-17.585-3.476-1.062-1.61 3.217-2.068 5.172-2.164-0.94-3.154-3.053-3.104-6.207-5.849-0.677-6.203 4.141-11.379 4.138 2.565-10.149 26.013-10.219 23.793 4.138 20.801 7.657 21.434-17.561 45.516-12.413 5.933 1.269 8.74 4.303 12.414 11.379-7.606 18.434-6.995 40.14-8.278 58.964 1.274-0.452 2.125-1.324 2.069-3.103 1.795 1.653 2.24 4.655 2.07 8.275 4.227 1.333 3.153-2.138 6.208 2.07 2.499-1.794 1.134-5.213 3.102-9.311 3.45 0.936 0.49 1.915 1.01 5.164zm-54.83 8.276c0.135-7.974 1.823-28.316-3.103-37.241-1.695-6.925 0.674-17.915-5.172-20.689 1.24 22.874 4.42 41.472 8.27 57.93zm24.83 49.659c1.228 3.898 2.65 2.646 3.104 6.207 0.515 4.055-4.865 8.458-1.034 12.413 3.536-4.835 5.421-17.301 2.069-22.757 4.108-16.581 5.899-35.479 7.24-54.826-0.229-0.807-0.867-1.203-2.069-1.035-1.14 19.018-6.62 39.431-9.31 60.001zm11.38-28.97c3.525-7.509 4.392-17.677 5.171-27.931-0.226-0.807-0.864-1.203-2.069-1.035-0.42 11.101-4.87 21.314-3.1 28.966z"/>
<path style="clip-rule:evenodd;fill-rule:evenodd;fill:#8B5E3C" d="m124.27 16.216c-7.469 4.193-17.039 10.412-27.931 5.172 1.834 4.208 5.977 6.193 9.31 6.206 2.052 5.881 3.487 12.377 5.172 18.621 0.168 1.212 1.887 0.873 3.104 1.035 2.237 11.21 4.016 22.878 7.24 33.102 1.273-0.451 2.125-1.323 2.069-3.103 1.754 2.729 3.063 5.901 3.103 10.345-2.353-0.75-0.308-5.899-4.138-5.173-1.486 10.46 3.897 22.993 6.207 33.103 0.451 1.272 1.324 2.124 3.103 2.069 3.287 30.075 11.979 57.489 17.586 87.929-0.966-0.586-1.567-2.875-2.07-1.034-5.257-11.985-7.317-27.165-10.344-41.379-4.941 0.471-0.805 4.026-3.103 6.206-3.62-5.059-2.254-10.159-3.103-16.55 2.893 1.244 0.844 7.43 3.103 9.31 5.02-2.407 0.674-8.635 0-12.413-2.371-13.296-5.344-26.113-8.275-40.345-1.5 1.261-1.387 4.132-4.139 4.139 0.321 1.403 2.591 0.857 4.139 1.035 3.292 13.544-0.787 21.97 2.068 36.205-3.18-2.599-1.425-8.028-2.068-12.413-0.904-6.153-4.619-12.667-1.035-15.517-5.558-2.376-8.688-15.197-10.344-24.827 2.595 2.921 3.099 7.936 4.137 12.413 2.822-4.422 0.686-19.346-3.103-23.792-6.025-1.01 0.084 6.183-4.139 5.172-2.797-4.64 0.59-7.11 3.104-9.31-1.123-6.119-5.997-8.487-8.277-13.448 3.232-11.623-4.765-20.665-4.137-33.103-3.794-5.86-6.66-12.649-11.379-17.586-8.607 1.048-12.398 6.913-16.55 12.414 0.707 3.774 5.252 3.712 7.24 6.207-0.319 1.403-2.589 0.857-4.138 1.033-3.124 8.83-10.216 18.436-22.757 14.483 13.329 9.083 16.839 27.986 26.895 40.344-1.025-3.112-0.765-7.511-4.138-8.276-0.979-11.777-8.318-17.198-11.379-26.895 6.257 5.812 10.477 13.661 13.449 22.757 1.272 1.156 2.124 0.901 2.068-1.035 3.93 0.943 0.757 4.158 1.035 7.242 1.816-6.819 5.738 3.522 3.104 7.242 1.844-4.64 7.199 4.917 4.137 8.275 0.151 2.308 2.606-1.343 5.172 0-0.575 2.528-2.427 3.78-4.139 5.172 0.991 2.113 2.113 4.094 3.104 6.207 3.036-0.879-1.346-2.604 0-5.172 2.837 2.335 5.646 4.699 5.172 10.345 5.31 12.964 8.843 27.707 14.482 40.344 2.962-10.096-2.255-9.906-4.138-19.655 2.505 0.598 2.301 3.907 3.103 6.206 1.745-11.124-6.507-26.507-6.207-36.207 6.624 19.239 10.131 41.592 19.656 57.929 0.354 12.747 4.572 23.529 7.24 37.242 1.128 5.795 4.721 10.185 6.207 15.519 2.75 9.868 3.615 21.677 6.207 32.065 0.689 2.769 2.665 5.548 3.103 8.278 1.061 6.609-0.131 12.372 3.104 17.585-5.639-4.706-7.825-12.866-12.414-18.62 2.292-1.552 4.919 5.386 6.207 8.275-1.664-25.968-12.549-50.567-18.621-77.586-2.478-0.407 0.574 4.711-3.103 3.104-3.125-9.29-5.733-19.093-9.31-27.93-4.77-0.61-8.072-10.151-10.345-16.551 1.726-1.658 1.911 7.002 5.172 7.24-1.209-5.341-1.58-11.522-5.172-14.482-1.404 0.32-0.859 2.589-1.035 4.138-2.358-2.812-3.786-6.56-3.103-12.413-12.167-16.46-19.196-38.047-32.06-53.803 0.75-3.164-1.785-3.042-1.035-6.206-6.498-5.573-8.509-15.628-16.552-19.656-3.455 3.096-6.268 6.835-8.275 11.379 3.144 10.91 14.762 17.456 20.689 26.896 2.625 4.182 3.513 9.115 6.207 13.448 2.517 4.049 5.778 7.153 8.275 11.379 3.357-0.091 0.728-6.168 5.172-5.172-7.04 19.434 10.357 30.534 14.482 45.516-5.749-4.603-10.151-19.498-16.552-26.896-5.178 3.462 0.999 10.675 2.069 14.483-0.402 3.036-3.117-8.265-7.24-8.276-3.324-0.91-1.419 3.41-4.139 3.104 7.992 15.111 19.292 26.913 26.896 42.412-4.669 0.168-5.508-12.409-13.448-12.414-1.893-3.179 0.932-4.651-1.035-7.24-1.052 0.673-1.07 2.38-3.104 2.069-3.024-7.32-7.769-12.921-12.413-18.621-3.469-0.709-3.781 1.736-4.138 4.139-3.696-2.771 2.118-4.697 1.035-8.276-10.153-17.778-21.164-34.697-36.206-47.584v-4.139c-2.931-0.172-4.311-1.896-7.242-2.068 0.078 4.75 4.076 5.579 7.242 7.24-0.104 3.207 1.265 4.942 2.068 7.242 10.947 9.053 18.707 21.292 26.896 33.102-5.701-4.651-14.672-14.977-19.655-23.792-8.628-5.164-11.423-16.163-19.654-21.724-7.608 9.823-3.363 25.92 6.206 29.999 4.077-1.548-4.418-4.316-1.033-5.171 8.956 5.87 14.093 15.561 20.689 23.792 7.651 2.693 11.054 9.636 15.517 15.517 0.92-0.458 1.849-0.908 2.068-2.069 1.881 1.223 0.813 5.394 2.069 7.242 11.902 12.578 20.165 28.797 31.034 42.412 2.88 0.465-0.812-5.639 2.068-5.171 4.572 0.501-0.207 3.927 2.069 6.206 11.503 15.738 21.756 32.726 32.068 49.653 2.289 4.161-1.813 0.061-2.069-2.069-5.689-5.345-9.418-12.648-13.447-19.654-3.324-0.636-1.419 3.726-4.139 1.034 0.275-2.581 3.883-3.453 1.035-6.205-1.212 0.168-0.872 1.885-1.035 3.102-14.646-18.108-27.906-37.608-43.446-54.825 0.579-2.997 1.614 1.585 3.103 1.035-1.182-8.13-5.958-12.662-11.378-16.552 3.107 3.099 3.514 8.898 7.241 11.378-5.374 0.872-8.763-9.153-14.482-11.378 1.379-10.69-7.023-11.597-9.31-18.62-1.052 0.672-1.07 2.378-3.104 2.068-1.014-4.502-6.612-4.422-6.206-10.345-1.856-0.131-2.183 1.266-4.139 1.035 1.866-4.692-2.606-9.029-8.275-9.31-3.523 0.701 4.557 3.438 1.035 4.138-4.341-1.866-10.389-2.024-12.414-6.207-3.93 0.553-4.558 4.409-5.172 8.276 4.118 5.881 10.611 9.389 16.552 13.448-1.563 2.16-6.98-0.537-9.31-1.035 1.145 4.222-5.727 6.663-7.242 11.379 3.289 13.57 24.311 20.171 15.517 36.205 7.533 13.157 18.997 22.385 32.068 30.002 0.556 8.407 6.77 11.162 10.345 16.55 8.068 1.241 12.294 6.324 20.689 7.241 8.786 9.145 21.995 13.867 33.102 20.688 9.57 11.121 20.527 20.852 31.034 31.034-9.768 0.699-15.54-21.088-26.895-15.516 3.206-4.172 0.454-6.78-3.104-9.312-2.624 1.379 1.518 4.593 1.035 7.243-5.194-5.496-6.222-15.158-14.482-17.585-5.241 7.859 0.416 26.62-3.104 36.205-3.031-12.857 7.348-43.382-11.378-43.448 5.488 8.828-2.069 22.181 4.138 32.068-8.35-2.634-5.706-12.34-4.138-17.585 0.933-3.123 1.022-7.249-1.035-11.379-4.587-9.211-9.293-12.772-24.827-14.481-10.043-9.615-13.779-25.532-29.999-28.967-2.964-3.863-5.539-9.346-9.312-13.446-2.438-2.652-5.511-3.365-6.206-8.277-0.432-3.044 1.691-5.956 1.033-9.311-2.431-12.428-27.119-23.533-11.378-37.239-0.154-3.985-5.758-2.518-7.242-5.172-0.836-9.457 2.312-14.929 5.172-20.689 6.12-1.638 5.336 3.628 10.345 3.103 2.415-3.426-2.605-6.57-4.138-9.31-1.593-11.061-0.456-23.304 7.24-27.93 3.273-0.171 3.458 2.749 7.242 2.068 7.019-2.625 11.898-6.229 13.447-14.482 0.545-2.896-0.935-6.449 0-9.31 2.51-7.675 8.095-9.884 13.449-13.449 3.709-0.262 3.79 3.107 7.241 3.104 6.551-1.725 9.356-7.196 13.449-11.379-10.32-15.676 15.04-31.474 28.964-19.654 10.851 0.852 16.492-3.507 20.689-9.31 2.994 1.293 0.903 6.295 5.172 8.275 1.968 18.032 6.204 33.794 8.275 51.723-0.188 2.256 0.848 3.291 3.104 3.103 2.034 38.983 8.389 82.19 11.379 123.1-3.339-9.312-3.657-20.88-5.172-32.069-2.829-20.881-9.96-46.689-9.311-73.447 0.191-0.88-0.403-0.976-1.034-1.035 4.568 0.248 2.099-2.394 1.034-8.275-3.4-18.857-7.99-48.35-12.41-66.217zm-5.17 72.411c-3.979-17.743-7.438-36.01-14.482-50.688 1.37 20.353 7.19 36.252 14.48 50.688zm-44.481 42.413c7.751-6.645-1.988-17.267-8.276-26.895-8.372-12.82-15.266-22.526-23.792-31.034-3.121 7.451 9.946 12.662 8.275 18.62-4.314-3.616-6.455-9.406-10.345-13.447-4.03 2.865-5.933 7.858-11.379 9.31 2.513 5.669 8.634 11.112 12.414 15.517 0.513 0.597 0.762 4.87 3.103 2.068-1.687-2.149-5.882-7.159-4.138-9.31 7.376 11.243 14.451 22.791 23.793 32.069 0.176-1.548-0.37-3.818 1.033-4.138 4.057 4.117-1.583 11.77 6.207 12.413 3.625-0.46 2.117-4.45 3.105-5.17zm-19.656-9.31c-0.472-5.39-4.874-6.85-7.241-10.345 1.691 4.18 3.834 7.9 7.241 10.35zm85.857-6.21c-0.147-3.991 0.808-9.084-2.069-10.345 0.15 3.99-0.8 9.08 2.07 10.34zm4.14 28.97c-0.91-6.332-0.094-14.389-3.104-18.621 0.3 6.93 0.66 13.82 3.1 18.62zm-141.72-8.28c2.385 1.063 3.335 3.561 7.241 3.104 0.772-4.15-6.032-7.22-7.241-3.1z"/>
<path style="clip-rule:evenodd;fill-rule:evenodd;fill:#8B5E3C" d="m208.06 47.25c3.065 6.881-5.975 10.562-4.139 19.654-3.355-4.907 0.088-17.235 2.069-28.966 1.437-8.515 3.742-16.981 5.174-23.792 5.151 0.019 7.728 2.616 10.342 5.172 9.753-5.312 33.538-12.185 35.173 5.172 6.571-0.02 9.648 3.455 12.414 7.242 7.859-8.777 18.713-3.294 25.859 4.137-2.737 11.757 1.674 17.854 10.345 20.689-3.038 9.031-9.59 14.545-13.445 22.757-0.039-6.943 7.964-14.785 11.376-21.723-0.663 0.187-8.374-5.159-8.275-5.172-5.866 0.795-3.822 12.505-11.379 13.448-11.283 33.205-30.998 56.961-41.379 93.102 7.606-3.771 6.146-16.614 13.449-20.689-3.03 4.9-5.056 10.809-7.24 16.552 6.167-1.085 7.688-15.752 12.411-21.724-0.655 9.352-8.74 20.216-12.411 29.999-3.143-1.275 1.123-3.557 0-6.207-4.001 3.242-4.965 9.521-7.243 14.482 1.574 1.503 4.609-4.304 5.174-7.24 1.75 5.562-5.031 11.506-6.209 17.585-2.817-0.952 1.448-3.233 0-6.206-1.271 0.451-2.124 1.324-2.066 3.104-2.339-5.471 4.125-11.027 5.171-16.553-6.197 4.145-6.827 13.861-11.377 19.654-1.783-0.319 1.344-3.592-3.104-3.102 2.719-5.691 1.635-9.844 4.136-14.483 3.905 1.706-0.905 9.244-2.066 12.414 6.368-2.596 4.425-13.505 10.342-16.553 5.465-29.706 20.986-49.358 31.036-74.48-0.495-15.518 13.474-36.374 20.689-48.619-3.055-4.19-8.792-5.692-14.483-7.242-4.34 3.592-5.884 9.979-11.379 12.414-0.562-3.664 3.662-2.544 3.104-6.207-0.33-2.428-3.203-2.315-4.139-4.137-4.169 2.037-3.952 8.459-6.209 12.413-4.028-4.984 7.48-12.38 1.035-16.552-5.449 1.706-3.701 7.97-5.171 12.414-3.03 9.166-9.007 21.866-10.345 35.172-4.508-2.543 2.32-8.598 1.035-14.482-4.602-1.372-2.243 5.307-3.104 8.275-1.646 5.68-5.603 12.547-3.104 18.621 3.245-2.375 2.917 1.889 4.14 0 2.025 1.336-1.613 5.014 4.139 4.137-2.455 2.489-0.993 6.539-2.069 9.31-0.322 0.828-2.73 1.314-3.104 2.069-3.239 6.532-4.125 14.361-6.206 20.689-4.092 12.45-8.104 22.971-12.414 36.205 3.633-21.194 13.691-44.927 20.689-66.204-2.598-5.016-3.264 0.529-6.208-4.139-2.937 1.544-2.876 6.089-3.102 10.345-4.186 3.745-2.166 13.698-7.24 16.551 3.109-10.682 5.76-21.824 8.274-33.102-0.256-1.124-2.056-0.702-2.069-2.069 7.555-18.306 9.734-41.988 18.62-58.964-1.23-5.666-7.328-6.464-13.449-7.242-6.197 4.146-3.765 16.92-9.307 21.724 0.435 1.989-0.71 3.733-1.035 2.068 0.083-4.744 2.626-7.027 2.069-12.413 2.901-0.892 2.199-5.386 4.137-7.242-5.958-3.187-10.361 3.171-16.554 3.104-1.876 1.222-0.812 5.393-2.066 7.24-3.074-3.136 3.217-11.332-3.104-12.414-5.43 5.949-3.525 19.232-5.172 28.966-1.513 0.903-4.007 0.822-3.104 4.138 2.2 0.491 1.96-1.469 2.06-3.094zm77.59 8.275c5.287 0.085 8.223-7.6 5.174-12.413-1.83 4.032-4.4 7.327-5.17 12.413z"/>
<path style="clip-rule:evenodd;fill-rule:evenodd;fill:#8B5E3C" d="m95.307 37.938c4.292-0.842 0.521 6.378 3.104 7.242-1.685 2.282-2.292-5.224-3.104-7.242z"/>
<path style="clip-rule:evenodd;fill-rule:evenodd;fill:#8B5E3C" d="m228.75 42.077c2.325 1.86-2.114 19.382-2.069 13.448 0.03-3.959 0.63-6.777 2.07-13.448z"/>
<path style="clip-rule:evenodd;fill-rule:evenodd;fill:#8B5E3C" d="m98.411 48.283c0.826-0.083 2.51 7.796 4.138 10.345-2.73-2.099-4.652-5.003-4.139-10.345z"/>
<path style="clip-rule:evenodd;fill-rule:evenodd;fill:#8B5E3C" d="m263.92 48.283c2.658-1.095-0.722 7.722-2.069 9.311-2.8-2.535 3.16-5.06 2.07-9.311z"/>
<path style="clip-rule:evenodd;fill-rule:evenodd;fill:#8B5E3C" d="m309.44 58.628c1.502-1.599 4.034-2.171 7.24-2.068 8.589 8.106 12.903 21.135 11.379 34.137-0.176 2.243 3.669 0.469 5.174 1.035-0.368 1.358-1.821 1.626-2.069 3.103 6.99-0.111 10.617 5.724 15.516 11.379 5.141 5.935 8.481 9.518 3.104 18.621-13.463 5.501-21.953 15.978-32.069 24.827 12.453-6.168 22.979-14.262 33.104-22.759 0.779 10.331 1.547 12.35 1.035 20.689 4.089 2.806 7.018 6.774 7.24 13.447-4.269 1.569-10.51 7.395-14.483 12.414 5.344 1.871 10.952-4.893 12.414-10.345 2.405 4.852-2.463 11.306-6.206 13.449 1.021 12.747-6.599 16.848-8.277 26.895-2.832 1.648-5.103 3.861-8.272 5.171-6.778 17.362-21.564 26.716-36.208 36.208v4.136c-4.07 0.498-7.749 5.452-11.379 3.104 6.561-8.267 24.894-13.463 21.724-24.828 5.934-0.115 2.879 2.025 2.069 5.174 6.61-2.7 9.945-8.675 14.481-13.446-0.165-1.214-1.886-0.875-3.104-1.035 0.881-1.535 2.604-2.224 5.174-2.069 6.228-11.013 17.188-17.296 20.689-31.033-9.258-3.627-8.614 6.431-14.481 8.274 0.655-2.306 0.16-4.323-4.139-1.034 0.646-6.951 17.101-7.028 19.654-15.516-11.85 2.292-24.338 12.896-34.138 20.689-8.157 1.15-13.025 5.592-15.516 12.411-2.991-4.75-8.46 1.379-10.345 4.139-0.138-4.293 8.2-9.026 13.446-11.379 1.711-1.393 3.563-2.645 4.139-5.171 9.164-2.691 15.169-10.873 22.759-15.519 4.348-2.661 11.041-2.092 12.411-8.275-0.195-0.837-1.035-1.032-1.035-2.069-6.879 2.428-10.892 7.728-17.585 10.345-0.517-5 5.031-3.936 7.243-6.206 6.66-8.512 22.032-8.311 24.828-20.689-2.204-3.66-4.87-6.856-9.312-8.276 0.645-2.804 4.321-2.575 4.14-6.207-2.488-3.385-3.518-2.837-1.035-7.241-8.085 3.296-13.908 8.848-19.654 14.482-11.146-0.543-11.955 11.183-20.689 16.552-1.403-0.32-0.858-2.59-1.034-4.139-7.488 2.513-8.961 11.039-16.551 13.449 4.293-2.257 5.077-8.024 6.206-13.449 1.488-1.156 2.523-1.115 3.101 1.035 17.924-13.111 32.066-30.003 50.691-42.412 0.391-7.598-4.496-13.431-13.448-14.482 6.232-4.235-8.76-10.048-11.38-5.173-0.902-0.672 2.752-6.151 0-9.31-1.77-0.045-2.681 0.769-3.104 2.069-3.032-0.879 1.349-2.603 0-5.172-7.039 4.684-14.073 9.375-17.585 17.586 5.897 3.102 8.097-11.869 12.414-10.344 4.126-0.107-1.538 5.372-3.104 6.206-2.188 3.672-2.95 8.773-9.311 8.276 0.116 2.573 1.938 3.202 0 5.172-6.076-0.232-9.868 2.604-11.376 9.31 0.303 2.414 2.796 2.414 3.102 0 0.492 4.995-10.111 7.806-9.311 16.552-1.552 1.554-3.112 3.095-5.174 4.138-1.397 5.841-5.344 9.138-7.24 14.482-2.997-2.072 2.983-3.832 2.069-7.242-10.086 13.57-23.686 28.441-26.895 45.518 2.488-5.097 7.478-7.694 11.377-11.379-2.859 9.557-13.245 20.543-20.689 28.964-3.357 10.092-10.141 16.754-14.48 25.863-3.649-1.855 1.818-4.524-2.07-8.278 7.502-4.381 6.627-11.641 11.38-17.585 1.535 0.451-0.41 1.324 0 3.104 2.658-0.1 1.478-4.04 4.136-4.139 0.133-1.855-1.266-2.183-1.034-4.14 15.345-23.622 24.966-52.961 45.518-71.376-0.567-4.126-0.567-3.115 0-7.242-4.96-2.924-8.74-6.144-13.446-11.378-3.533 3.02-3.913 9.193-7.243 12.413-1.354-5.168 6.346-10.188 6.208-17.585-3.795 1.377-2.201 8.143-8.277 7.24 1.783-5.46 6.555-7.928 8.277-13.447 1.723-0.197 0.732 7.341 3.104 3.103-1.305 8.01 10.776 9.31 13.446 16.552 2.856 0.443 0.971-3.856 3.104-4.138-0.451-1.535-1.326 0.408-3.104 0 7.887-11.77 16.179-23.13 23.793-35.171 1.123 0.256 0.699 2.057 2.069 2.068 5.314-3.304 4.821-12.418 12.412-13.448-0.73-10.25-6.26-15.761-15.51-17.541zm10.35 25.861c2.49-0.422 2.248 1.889 5.171 1.035 0.503-2.354 2.053-5.284 0-7.24-3.56 0.237-4.51 3.078-5.17 6.205z"/>
<path style="clip-rule:evenodd;fill-rule:evenodd;fill:#8B5E3C" d="m299.1 181.73c3.14 4.296 2.399 12.284-1.035 15.519-2.953-3.038 3.707-9.52 0-13.449-16.454 7.687-24.192 24.082-37.242 35.173 1.134-8.586 11.63-12.935 17.588-19.654 1.191-1.349 1.005-3.589 2.066-5.174 4.156-6.187 11.443-9.968 16.554-14.48 0.803-0.923 1.111-2.34 1.034-4.14 10.611-3.527 16.438-11.84 23.791-18.621-2.73 8.98-16.92 15.48-22.75 24.82z"/>
<path style="clip-rule:evenodd;fill-rule:evenodd;fill:#8B5E3C" d="m273.24 221.04c1.354-4.758 6.517-8.734 13.446-14.483 6.147-5.103 12.856-8.052 19.654-13.449 4.216-3.346 6.269-8.14 13.449-9.31-1.462 5.138-7.532 6.426-11.38 9.31-4.888 3.666-8.539 8.955-13.449 12.414-7.34 5.18-16.29 8.11-21.72 15.52z"/>
<path style="clip-rule:evenodd;fill-rule:evenodd;fill:#8B5E3C" d="m258.75 61.732c1.898 0.974-1.597 5.218-1.032 8.275-2.89-1.962 0.19-6.624 1.03-8.275z"/>
<path style="clip-rule:evenodd;fill-rule:evenodd;fill:#8B5E3C" d="m232.89 73.111c2.125-0.749 0.025 7.151-2.066 10.345-1.816-0.947-3.594-1.924-3.104-5.172 4.35 0.901 3.46-3.436 5.17-5.173z"/>
<path style="clip-rule:evenodd;fill-rule:evenodd;fill:#8B5E3C" d="m257.72 104.14c0.787-3.891-5.493-0.714-4.139-5.173 10.95-0.772 8.746-14.703 13.449-21.723 0.17 8.455-5.604 19.908-9.311 27.93-1.18-0.19-0.58-1.03 0-1.03z"/>
<path style="clip-rule:evenodd;fill-rule:evenodd;fill:#8B5E3C" d="m41.516 87.594c5.361 4.638 9.389 10.611 12.414 17.585-5.488-3.84-10.247-13.878-12.414-17.586z"/>
<path style="clip-rule:evenodd;fill-rule:evenodd;fill:#8B5E3C" d="m166.69 91.731c2.661 8.538-2.342 18.336-3.104 26.896-3.751-0.732-1.425-7.539-2.069-11.379 6.54 3.45 2.63-11.608 5.17-15.519z"/>
<path style="clip-rule:evenodd;fill-rule:evenodd;fill:#8B5E3C" d="m51.86 93.801c4.89 2.35 4.843 9.637 9.31 12.413-4.192 1.07-7.604-7.545-9.31-12.409z"/>
<path style="clip-rule:evenodd;fill-rule:evenodd;fill:#8B5E3C" d="m219.44 157.94c-3.164-3.236 0.908-8.008 0-12.414-1.758-0.38-1.948 0.808-2.066 2.069-1.367-8.849 4.255-14.003 6.206-24.827 1.854-10.295 0.66-21.652 6.208-20.689-2.259-2.583-2.999-6.976 2.069-7.242-1.646 17.666-8.575 30.046-10.347 47.585 8.45-17.95-0.28 9.7-2.07 15.52z"/>
<path style="clip-rule:evenodd;fill-rule:evenodd;fill:#8B5E3C" d="m67.377 121.73c1.362-1.971 3.396 2.383 6.207 0 0.771 3.184-2.84 1.988-2.07 5.172-2.282-0.82-1.344-4.86-4.137-5.17z"/>
<path style="clip-rule:evenodd;fill-rule:evenodd;fill:#8B5E3C" d="m258.75 127.94c1.594 0.995-1.491 6.022-2.066 8.275-2.96-2.37 2.16-5.37 2.07-8.28z"/>
<path style="clip-rule:evenodd;fill-rule:evenodd;fill:#8B5E3C" d="m322.89 134.14c1.99 2.794-3.927 5.44-6.205 8.275-0.875 1.09 0.718 3.983-2.069 3.103-2.92-5.69 6.77-6.76 8.28-11.38z"/>
<path style="clip-rule:evenodd;fill-rule:evenodd;fill:#8B5E3C" d="m273.24 140.35c0.754 3.203-5.735 8.036-7.243 12.414-1.12-3.56 4.84-8.92 7.24-12.41z"/>
<path style="clip-rule:evenodd;fill-rule:evenodd;fill:#8B5E3C" d="m21.861 144.49c7.66 2.001 16.764 11.504 21.724 19.655 8.3 2.386 11.056 10.322 15.517 16.55-12.288-7.025-23.486-24.096-38.275-32.067-0.155-1.37 4.206-3.12 1.034-4.13z"/>
<path style="clip-rule:evenodd;fill-rule:evenodd;fill:#8B5E3C" d="m203.93 146.56c-0.059 10.431-6.347 33.287-8.275 48.62-1.274-0.451-2.125-1.323-2.069-3.104-2.317 4.926-3.36 11.12-4.137 17.585-1.888-6.044 1.574-15.65 3.102-21.724 1.214 0.167 0.872 1.888 1.035 3.104 1.472-1.263 2.353-3.946 1.034-5.171-0.922 0.636-1.852 1.249-2.069 0-4.521 5.479-4.152 15.843-6.205 23.791-0.941-6.352 0.424-21.702 1.034-26.896 2.312 0.446 0.418 5.1 1.035 7.241 4.97-6.875 3.951-13.336 5.171-23.794 2.138 0.892 1.092 7.202 0 8.278 6.83-7.85 5.46-19.94 10.36-27.93z"/>
<path style="clip-rule:evenodd;fill-rule:evenodd;fill:#8B5E3C" d="m343.58 146.56c1.359 2.438-4.543 6.455-8.275 7.242 1.18-4 6.45-3.9 8.28-7.24z"/>
<path style="clip-rule:evenodd;fill-rule:evenodd;fill:#8B5E3C" d="m215.3 158.97c3.223 1.154 2.991 5.89 7.24 8.274-4.018 16.439-7.171 30.783-13.446 46.552-2.069-1.145 1.261-5.554 0-9.31-3.143 0.993-2.254 6.023-4.139 8.275-1.954-0.776-0.718-3.088-3.104-1.035-1.183 3.253 1.624 2.516 2.07 4.139-0.804 3.336-2.163 6.112-4.14 8.275-1.139 4.72-0.156 11.566-4.136 13.449 3.041-18.684 8.171-35.277 11.379-53.793 2.075 0.353 3.236-0.212 3.104-2.069-2.469 1.326-2.053-1.261-1.035-6.206 1.404 0.319 0.859 2.59 1.035 4.14 2.606-4.729 8.077-12.552 4.137-17.588-1.391 0.681-1.927 2.21-2.067 4.136-2.396 2.369 0.35-3.223 0-5.171-0.368-1.358-1.821-1.626-2.069-3.103-1.971 0.444-2.601 2.228-5.174 2.068 0.675-6.221 10.475-3.32 10.345-10.343 1.91-2.33-1.07 5.82 0 9.3zm3.11 15.52c-2.361 7.645-7.976 17.529-6.203 25.862 2.03-7.97 5.88-19.62 6.2-25.86zm-13.45 35.17c0.215-7.04 7.072-12.907 4.139-19.654-0.74 6.51-6.26 13.71-4.14 19.65z"/>
<path style="clip-rule:evenodd;fill-rule:evenodd;fill:#8B5E3C" d="m11.517 150.69c2.822-0.752 2.082 2.056 4.138 2.07-0.572 0.651-4.202 3.125-1.035 4.137-1.35 1.38-7.516-4.15-3.103-6.21z"/>
<path style="clip-rule:evenodd;fill-rule:evenodd;fill:#8B5E3C" d="m16.689 154.83c3.208-1.446 7.149 5.236 10.345 7.241-2.465 0.71-6.681-5.7-10.345-7.24z"/>
<path style="clip-rule:evenodd;fill-rule:evenodd;fill:#8B5E3C" d="m191.51 155.87c2.078 1.815-1.403 6.817-1.034 10.343-1.92-1.65 0.41-7.81 1.03-10.34z"/>
<path style="clip-rule:evenodd;fill-rule:evenodd;fill:#8B5E3C" d="m333.23 155.87c-0.457 2.622-9.791 8.298-7.243 4.138 4.08 0.28 3.17-4.43 7.24-4.14z"/>
<path style="clip-rule:evenodd;fill-rule:evenodd;fill:#8B5E3C" d="m88.066 156.9c8.846 8.396 8.806 25.678 21.724 29.998-1.651-5.245-5.266-8.525-6.207-14.48 5.928 7.518 9.048 17.849 13.447 26.897-1.322-1.437-4.883-0.633-6.207-2.069 0.86 2.587 2.834 4.062 3.104 7.24 1.494-2.463 1.568-2.54 3.103-3.104 4.725 9.415 10.311 17.968 12.414 29.999-4.395-5.259-5.191-14.117-10.344-18.619 0.756 6.483 5.45 9.031 6.207 15.516-7.14-11.823-15.232-22.698-20.689-36.205-1.856-0.133-2.182 1.266-4.139 1.034 1.186-4.287-2.175-4.028-2.068-7.24 1.49 1.159 2.523 1.114 3.103-1.034-3.176-10.61-10.196-17.38-13.434-27.94z"/>
<path style="clip-rule:evenodd;fill-rule:evenodd;fill:#8B5E3C" d="m273.24 162.07c-2.433 8.946-7.469 15.292-13.452 20.688 5.48-5.89 6.57-16.18 13.45-20.69z"/>
<path style="clip-rule:evenodd;fill-rule:evenodd;fill:#8B5E3C" d="m321.85 163.11c1.139 2.9-6.173 6.211-8.272 9.311-1.74-3.5 6.27-6.11 8.27-9.31z"/>
<path style="clip-rule:evenodd;fill-rule:evenodd;fill:#8B5E3C" d="m25.999 168.28c0.33-2.196 3.202 1.48 4.137 2.069 2.812-0.943-2.756-1.92-1.035-5.171 5.144 1.753 7.253 6.542 11.379 9.311-0.067 2.229-6.726-1.583-3.103 2.069-2.741 0.29-7.872-5.9-11.378-8.28z"/>
<path style="clip-rule:evenodd;fill-rule:evenodd;fill:#8B5E3C" d="m270.13 174.49c2.691-0.523-3.217 6.709-5.174 8.274-1.64-2.04 2.82-6.79 5.17-8.27z"/>
<path style="clip-rule:evenodd;fill-rule:evenodd;fill:#8B5E3C" d="m288.75 174.49c1.871 3.632-6.209 6.178-5.174 12.411-6.467-0.622-4.134 8.338-12.411 8.277-0.094 2.824 1.723 2.081 0 4.14-2.764-2.856-2.251 1.222-5.174 1.034 6.41-9.79 15.9-16.51 22.75-25.86z"/>
<path style="clip-rule:evenodd;fill-rule:evenodd;fill:#8B5E3C" d="m39.446 178.63c5.537-1.054 5.149 3.814 10.345 3.102-2.741 1.896-2.588 6.228 0 7.24-2.558-0.23-7.179-7.28-10.345-10.34z"/>
<path style="clip-rule:evenodd;fill-rule:evenodd;fill:#8B5E3C" d="m59.102 183.8c4.032-2.271 6.368 6.016 9.31 8.275-3.261 1.49-6.104-6.29-9.31-8.28z"/>
<path style="clip-rule:evenodd;fill-rule:evenodd;fill:#8B5E3C" d="m238.06 183.8c1.698-0.014-2.958 10.576-5.174 13.449-0.61-2.71 3.1-9.98 5.17-13.45z"/>
<path style="clip-rule:evenodd;fill-rule:evenodd;fill:#8B5E3C" d="m220.48 197.25c1.203-0.87 2.774-1.365 5.174-1.035 1.067-4.447 2.487-8.548 4.139-12.414 1.321 5.195 3.063 12.585-4.139 15.519 1.057 7.573-5.843 10.931-8.275 16.55-0.972 2.24-0.189 5.702-1.034 8.275-0.498 1.517-2.532 3.5-3.104 5.171-1.558 4.558-1.467 6.869-4.137 10.348-1.06-13.03 10.25-25.44 11.37-42.43z"/>
<path style="clip-rule:evenodd;fill-rule:evenodd;fill:#8B5E3C" d="m71.515 199.32c15.476 10.732 33.347 28.025 43.448 47.584-6.72-5.006-10.353-13.097-14.484-20.689-2.437 0.022-3.045-1.78-6.206-1.034-6.534-9.68-16.732-15.69-22.759-25.86z"/>
<path style="clip-rule:evenodd;fill-rule:evenodd;fill:#8B5E3C" d="m228.75 202.42c1.591 0.993-1.495 6.023-2.069 8.274-2.28-1.68 1.45-6.07 2.07-8.27z"/>
<path style="clip-rule:evenodd;fill-rule:evenodd;fill:#8B5E3C" d="m261.85 203.45c1.932 9.131-8.804 12.868-14.481 19.654-1.852 2.213-3.164 5.532-5.174 8.275-6.83 9.338-15.331 22.48-21.724 33.104-2.81-0.003-4.844 4.351-6.205 0-1.076-4.406 1.808-0.448 3.104-1.035 3.771-1.709 7.208-7.978 8.275-13.448 4.86-6.517 10.443-12.026 15.516-18.62 1.712-2.221 2.389-5.949 4.139-8.275 4.128-5.481 11.878-9.387 12.414-17.585 2.35 0.29 3.88-0.25 4.12-2.07z"/>
<path style="clip-rule:evenodd;fill-rule:evenodd;fill:#8B5E3C" d="m177.03 205.52c4.604 5.647-1.271 10.488-2.067 16.551-2.12-4.22 1.6-11.47 2.07-16.55z"/>
<path style="clip-rule:evenodd;fill-rule:evenodd;fill:#8B5E3C" d="m286.68 241.73c-4.91-4.161-9.511 6.294-13.446 3.104 5.402-1.494 8.855-4.935 12.411-8.275 6.049 0.528 7.428-3.607 12.414-4.139-2.369-4.915-3.36-12.299 2.066-14.481-2.154-3.082-4.21 2.599-7.237 2.07 0.793-3.407 5.57-2.089 3.102-6.209 5.463 2.125 8.363-4.771 14.483-5.174-6.429 3.572-8.743 11.259-13.448 16.554 0.525 3.267 3.046 4.54 3.101 8.274-4.16 2.042-8.765 3.646-11.376 7.243 1.266 3.151 3.946-1.514 5.174 1.032-3.814 3.429-9.874 4.609-14.486 7.24-1.21-1.98 7.22-3.11 7.27-7.23z"/>
<path style="clip-rule:evenodd;fill-rule:evenodd;fill:#8B5E3C" d="m143.93 210.69c5.26 22.324 11.008 44.164 14.482 68.276-2.715-0.875-0.812-4.222-2.068-8.277-1.646-5.304-5.586-7.959-3.104-15.516-5.97-11.95-6.04-29.81-9.31-44.48z"/>
<path style="clip-rule:evenodd;fill-rule:evenodd;fill:#8B5E3C" d="m191.51 212.76c1.597 2.955 0.925 6.241 0 9.31-1.406-0.319-0.858-2.59-1.034-4.137-4.381 11.138-4.679 26.358-8.278 38.274-1.942-11.445 5.895-29.479 5.174-43.447 0.83 4.85 0.98 4.18 4.14 0.01z"/>
<path style="clip-rule:evenodd;fill-rule:evenodd;fill:#8B5E3C" d="m278.41 220.01c-18.325 16.847-36.296 34.047-54.827 50.686 3.104-5.785 9.656-11.801 15.516-17.585 6.302-6.215 12.841-12.803 19.654-17.586-3.143-0.908-1.811-7.369 2.069-7.242-0.44 1.976-2.955 1.873-2.069 5.173 7.94-3.11 12.07-10.01 19.66-13.45z"/>
<path style="clip-rule:evenodd;fill-rule:evenodd;fill:#8B5E3C" d="m206 221.04c2.416 3.836-2.57 9.12-3.104 13.446-2.37-3.79 3.11-8.58 3.1-13.45z"/>
<path style="clip-rule:evenodd;fill-rule:evenodd;fill:#8B5E3C" d="m85.997 225.18c6.155 2.13 11.982 13.525 18.621 18.619-3.802 2.281-4.773-3.53-7.242-6.205-3.616-3.92-7.96-7.64-11.381-12.42z"/>
<path style="clip-rule:evenodd;fill-rule:evenodd;fill:#8B5E3C" d="m291.86 230.35c-2.122 2.708-6.176 3.48-9.313 5.173 1.41-3.41 5.83-3.82 9.31-5.17z"/>
<path style="clip-rule:evenodd;fill-rule:evenodd;fill:#8B5E3C" d="m129.44 232.42c6.752 6.104 5.785 14.558 7.241 21.724-0.691 1.123-6.139-10.221-5.172-17.585-0.01-2.06-2.82-1.32-2.07-4.14z"/>
<path style="clip-rule:evenodd;fill-rule:evenodd;fill:#8B5E3C" d="m118.06 240.69c4.624 3.306 5.976 9.886 10.345 13.446-3.53-0.28-9.07-7.46-10.34-13.45z"/>
<path style="clip-rule:evenodd;fill-rule:evenodd;fill:#8B5E3C" d="m262.89 250c-4.634 8.817-20.97 14.888-28.964 23.793 11.522-7.788 24.512-14.106 36.207-21.724 2.664 3.071-5.746 3.866-6.208 7.243 8.624-1.376 12.119-7.882 21.724-8.278 1.648 5.395-4.811 9.285-5.174 15.519-0.143 2.529 1.404 4.813 1.035 7.24-1.574 10.425-7.964 18.31-15.516 22.759-5.652 15.755-15.395 27.545-33.104 28.965-11.181 0.896-23.758-1.5-37.239-3.102-5.771-0.688-13.826 2.273-16.553-4.139 2.121-1.365 7.925 0.5 10.347 2.069 16.897-2.378 42.578 6.45 57.929-2.069 7.161-3.977 13.876-14.536 16.551-24.828 10.779-4.106 17.665-17.432 14.483-32.066-6.002 0.204-9.53 2.884-9.31 9.308-0.743-2.488-3.69-5.499-2.069-7.241-16.182 0.372-24.056 9.049-35.171 14.484-2.268 2.151 0.905 3.341-1.034 5.171-3.209 0.352-4.942-2.395-7.243 0-3.368 0.426-2.667 4.92-4.14 7.24-5.311 3.654-10.875 7.056-14.48 12.417-2.386 0.313-1.15-2.989-3.104-3.104-5.421 3.198-9.785 7.452-17.585 8.275 5.378-6.159 13.469-8.771 19.655-13.449 6.698-5.061 11.106-12.967 19.654-15.516 0.93-1.83 2.499-3.021 3.104-5.174 13.63-6.34 25.08-14.89 36.18-23.8zm12.41 9.31c2.673-1.467 8.19-0.088 8.275-4.139-3.88 0.27-6.65 1.63-8.28 4.14z"/>
</svg>
